HIERARCHY
ROOT Hips
{
	OFFSET 0.000000 0.000000 0.000000
	CHANNELS 6 Xposition Yposition Zposition Zrotation Yrotation Xrotation 
	JOINT LeftUpLeg_virtual
	{
		OFFSET 0.000000 0.000000 0.000000
		CHANNELS 3 Zrotation Yrotation Xrotation
		JOINT LeftUpLeg
		{
			OFFSET 10.205400 -3.823500 0.155100
			CHANNELS 3 Zrotation Yrotation Xrotation
			JOINT LeftLeg
			{
				OFFSET 0.708757 -12.982077 0.567790
				CHANNELS 3 Zrotation Yrotation Xrotation
				JOINT LeftFoot
				{
					OFFSET -0.708756 -10.717838 -2.184338
					CHANNELS 3 Zrotation Yrotation Xrotation
					JOINT LeftToeBase
					{
						OFFSET 0.108149 -7.191104 7.560241
						CHANNELS 3 Zrotation Yrotation Xrotation
						End Site
						{
							OFFSET 0.000000 0.000000 0.000000
						}
					}
				}
			}
		}
	}
	JOINT RightUpLeg_virtual
	{
		OFFSET 0.000000 0.000000 0.000000
		CHANNELS 3 Zrotation Yrotation Xrotation
		JOINT RightUpLeg
		{
			OFFSET -10.205400 -3.823500 0.005500
			CHANNELS 3 Zrotation Yrotation Xrotation
			JOINT RightLeg
			{
				OFFSET -0.708756 -12.982134 0.610632
				CHANNELS 3 Zrotation Yrotation Xrotation
				JOINT RightFoot
				{
					OFFSET 0.708754 -10.717769 -1.945823
					CHANNELS 3 Zrotation Yrotation Xrotation
					JOINT RightToeBase
					{
						OFFSET -0.108140 -7.191069 7.372968
						CHANNELS 3 Zrotation Yrotation Xrotation
						End Site
						{
							OFFSET 0.000000 0.000000 0.000000
						}
					}
				}
			}
		}
	}
	JOINT Spine_virtual
	{
		OFFSET 0.000000 0.000000 0.000000
		CHANNELS 3 Zrotation Yrotation Xrotation
		JOINT Spine
		{
			OFFSET 0.000000 6.876099 0.125700
			CHANNELS 3 Zrotation Yrotation Xrotation
			JOINT Spine1
			{
				OFFSET 0.000000 8.022060 0.146608
				CHANNELS 3 Zrotation Yrotation Xrotation
				JOINT Spine2
				{
					OFFSET 0.000000 9.168068 0.167552
					CHANNELS 3 Zrotation Yrotation Xrotation
					JOINT Neck_virtual
					{
						OFFSET 0.000000 0.000000 0.000000
						CHANNELS 3 Zrotation Yrotation Xrotation
						JOINT Neck
						{
							OFFSET 0.000000 10.314075 0.188496
							CHANNELS 3 Zrotation Yrotation Xrotation
							JOINT Head
							{
								OFFSET 0.000000 7.643700 -2.377400
								CHANNELS 3 Zrotation Yrotation Xrotation
								End Site
								{
									OFFSET 0.000000 0.000000 0.000000
								}
							}
						}
					}
					JOINT LeftShoulder_virtual
					{
						OFFSET 0.000000 0.000000 0.000000
						CHANNELS 3 Zrotation Yrotation Xrotation
						JOINT LeftShoulder
						{
							OFFSET 4.392200 8.824978 0.174984
							CHANNELS 3 Zrotation Yrotation Xrotation
							JOINT LeftArm
							{
								OFFSET 8.771219 -2.981674 -0.026999
								CHANNELS 3 Zrotation Yrotation Xrotation
								JOINT LeftForeArm
								{
									OFFSET 8.512804 0.000000 -0.000000
									CHANNELS 3 Zrotation Yrotation Xrotation
									JOINT LeftHand
									{
										OFFSET 18.484802 0.000000 -0.000000
										CHANNELS 3 Zrotation Yrotation Xrotation
										End Site
										{
											OFFSET 0.000000 0.000000 0.000000
										}
									}
								}
							}
						}
					}
					JOINT RightShoulder_virtual
					{
						OFFSET 0.000000 0.000000 0.000000
						CHANNELS 3 Zrotation Yrotation Xrotation
						JOINT RightShoulder
						{
							OFFSET -4.392200 8.824993 0.141379
							CHANNELS 3 Zrotation Yrotation Xrotation
							JOINT RightArm
							{
								OFFSET -8.771282 -2.981682 -0.094208
								CHANNELS 3 Zrotation Yrotation Xrotation
								JOINT RightForeArm
								{
									OFFSET -8.494598 0.000000 0.000000
									CHANNELS 3 Zrotation Yrotation Xrotation
									JOINT RightHand
									{
										OFFSET -18.483803 0.000000 0.000001
										CHANNELS 3 Zrotation Yrotation Xrotation
										End Site
										{
											OFFSET 0.000000 0.000000 0.000000
										}
									}
								}
							}
						}
					}
				}
			}
		}
	}
}
MOTION
Frames: 8
Frame Time: 0.033333
-23.722422 36.520859 53.766697 -179.922523 25.886192 -179.950732 -1.871286 -4.261845 7.165919 -8.095097 7.592677 -20.175725 13.004271 8.874347 20.884265 -3.755809 -3.182861 9.417676 0.000000 0.000000 0.000000 2.413448 -1.704774 4.994382 -0.914638 -3.373521 -11.591041 -9.308708 -0.973163 15.404885 4.239069 6.700527 9.085195 0.000000 0.000000 0.000000 1.167816 0.624586 -4.244006 2.598557 -1.773461 -13.513505 -1.133939 -2.109113 8.343391 0.004385 -0.013852 0.018362 -1.647440 0.314130 10.067025 -5.355778 1.923850 14.279710 0.000000 0.000000 0.000000 0.566336 0.821520 7.258735 -13.615746 -0.533242 1.853589 -60.072012 24.305582 10.888531 2.836571 -35.961824 9.160107 0.000000 0.000000 0.000000 -4.316905 2.136594 6.229550 27.345176 2.170771 4.307347 47.703708 -21.233554 16.138586 -6.659618 35.760357 -4.651743 0.000000 0.000000 0.000000 
-23.698229 36.534161 53.770447 -179.926239 25.874186 -179.912674 -1.935237 -4.162446 7.200122 -8.215650 7.937400 -20.143138 12.876324 9.444218 20.915170 -3.788437 -3.105337 8.949776 0.000000 0.000000 0.000000 2.391632 -1.960111 4.908805 -0.872738 -4.276729 -11.608341 -9.771396 -1.713845 15.061336 3.619168 6.151532 8.625072 0.000000 0.000000 0.000000 1.151581 0.665281 -4.297017 2.570468 -1.749730 -13.542692 -1.140475 -2.099719 8.354702 -0.006517 -0.005179 0.099517 -1.608851 0.348936 10.051189 -5.287527 1.910835 14.287388 0.000000 0.000000 0.000000 0.571999 0.866198 7.252863 -13.612078 -0.456300 1.869844 -60.125814 24.678431 10.847968 2.844069 -35.678436 9.142659 0.000000 0.000000 0.000000 -4.316665 2.146596 6.223838 27.367202 2.227697 4.312436 47.697137 -21.177323 16.228994 -6.698855 35.788337 -4.669424 0.000000 0.000000 0.000000 
-23.673706 36.552437 53.804852 -179.974064 25.826974 179.839250 -1.965610 -3.843440 7.256337 -8.048655 7.803736 -20.009789 12.821466 9.610758 20.722415 -3.959380 -3.061083 9.322786 0.000000 0.000000 0.000000 2.389157 -1.786074 5.007312 -0.851931 -4.411534 -11.331250 -9.753164 -1.817163 14.880827 3.598023 6.076744 8.557687 0.000000 0.000000 0.000000 1.133963 0.730665 -4.152475 2.466047 -1.752541 -13.438816 -1.157742 -2.048136 8.424258 -0.021068 0.016595 0.024201 -1.562747 0.356729 10.084709 -5.228176 1.912566 14.235234 0.000000 0.000000 0.000000 0.596391 0.872791 7.295396 -13.585615 -0.375664 1.831905 -60.268264 25.121277 10.926873 2.939375 -35.413766 9.003931 0.000000 0.000000 0.000000 -4.272577 2.146740 6.279129 27.435287 2.299790 4.290509 47.732989 -21.183342 16.485061 -6.695941 35.813434 -4.638972 0.000000 0.000000 0.000000 
-23.657671 36.581055 53.870792 -179.980826 25.553823 179.968381 -1.996186 -3.770768 7.080631 -7.856504 7.793937 -19.904290 12.670384 9.724645 20.261879 -4.194011 -3.008468 9.730737 0.000000 0.000000 0.000000 2.442206 -1.850818 4.923177 -0.784647 -4.657174 -11.254471 -9.722169 -1.838475 14.608911 3.557405 5.995103 8.769249 0.000000 0.000000 0.000000 1.042536 0.791192 -4.232076 2.422132 -1.784114 -13.445162 -1.159052 -2.033265 8.471390 -0.048561 0.028060 0.036234 -1.599050 0.108400 10.122836 -5.180457 1.934981 14.071399 0.000000 0.000000 0.000000 0.625919 0.851718 7.359285 -13.533977 -0.415454 1.775097 -60.399807 25.440334 11.160889 2.983494 -35.233524 8.859550 0.000000 0.000000 0.000000 -4.214372 2.113119 6.299249 27.484900 2.319122 4.247960 47.843242 -21.303932 16.586923 -6.688373 35.816385 -4.522200 0.000000 0.000000 0.000000 
-23.654934 36.607388 53.946514 179.988831 25.349849 179.899314 -2.022868 -3.543436 6.964523 -7.659454 7.652105 -19.777257 12.511218 9.954591 19.780245 -4.409876 -2.930630 10.157716 0.000000 0.000000 0.000000 2.493466 -1.807414 4.831562 -0.746152 -4.924546 -11.080403 -9.704784 -1.896242 14.425903 3.518167 5.918691 8.840432 0.000000 0.000000 0.000000 1.018536 0.801820 -4.169471 2.331118 -1.853427 -13.408004 -1.182197 -2.024043 8.515095 0.009167 0.030934 0.068737 -1.592982 0.292476 10.108383 -5.104550 1.892614 13.865018 0.000000 0.000000 0.000000 0.605518 0.889774 7.351570 -13.496578 -0.384566 1.734755 -60.349871 25.520491 11.668734 3.103631 -35.137826 8.604896 0.000000 0.000000 0.000000 -4.214438 2.143645 6.347183 27.462558 2.438299 4.108373 47.975092 -21.530684 16.905246 -6.813244 35.806447 -4.518899 0.000000 0.000000 0.000000 
-23.676134 36.620026 54.021996 179.999308 24.956910 179.936443 -2.007388 -3.408367 6.751035 -7.523950 7.457501 -19.738866 12.397989 10.247448 19.445660 -4.625729 -2.875191 10.593024 0.000000 0.000000 0.000000 2.567349 -1.931479 4.752513 -0.756561 -5.072637 -11.038121 -9.641915 -1.979966 14.297866 3.486293 5.813790 8.961036 0.000000 0.000000 0.000000 0.965899 0.791746 -4.170113 2.211971 -1.958098 -13.424466 -1.124498 -2.019036 8.597473 0.005592 0.026985 0.048596 -1.616224 0.324248 10.174463 -4.985455 1.884249 13.638015 0.000000 0.000000 0.000000 0.594802 0.809385 7.448948 -13.440486 -0.569000 1.686333 -60.176972 25.296955 12.280322 3.147155 -35.260411 8.464191 0.000000 0.000000 0.000000 -4.210659 2.087890 6.417803 27.410150 2.460353 3.984897 48.121797 -21.781195 17.082057 -6.938409 35.773061 -4.491588 0.000000 0.000000 0.000000 
-23.714060 36.623074 54.084457 -179.988681 24.760161 179.946115 -1.993940 -3.248003 6.692654 -7.471514 7.294654 -19.731795 12.308444 10.570081 19.235479 -4.811420 -2.800378 10.837425 0.000000 0.000000 0.000000 2.640192 -1.931834 4.721766 -0.808179 -5.225001 -11.143776 -9.591022 -2.001480 14.325786 3.495551 5.733486 9.033297 0.000000 0.000000 0.000000 0.940395 0.760472 -4.099935 2.098772 -2.081155 -13.478985 -1.110268 -2.068225 8.653318 -0.007016 -0.012374 -0.003004 -1.605765 0.435089 10.290323 -4.747759 1.828981 13.393491 0.000000 0.000000 0.000000 0.640688 0.879342 7.515611 -13.410309 -0.669034 1.687259 -59.854553 24.800629 13.042637 3.218976 -35.630194 8.269735 0.000000 0.000000 0.000000 -4.133072 2.241251 6.566228 27.297247 2.559452 3.815442 48.278547 -22.103074 17.221762 -7.047042 35.632776 -4.504599 0.000000 0.000000 0.000000 
-23.765287 36.621323 54.136852 179.991768 24.535346 179.846886 -2.025806 -3.201775 6.719600 -7.514805 7.122920 -19.814370 12.276506 10.794770 19.051575 -4.964106 -2.673762 11.077424 0.000000 0.000000 0.000000 2.674308 -2.090668 4.844607 -0.933631 -5.270183 -11.355049 -9.468246 -2.025788 14.388036 3.531684 5.648011 9.115624 0.000000 0.000000 0.000000 0.868752 0.907276 -3.947468 1.971506 -2.215261 -13.508713 -1.102991 -2.067307 8.696438 -0.013592 -0.089308 0.028777 -1.557122 0.176748 10.351148 -4.374343 1.760035 13.154389 0.000000 0.000000 0.000000 0.724316 0.821047 7.585838 -13.399556 -1.016111 1.673534 -59.396896 23.944072 13.695587 3.134341 -36.306540 8.276731 0.000000 0.000000 0.000000 -4.047743 2.114748 6.672212 27.071407 2.686317 3.630415 48.451552 -22.429006 17.267931 -7.217244 35.430158 -4.398926 0.000000 0.000000 0.000000 
